# xmcd
#
# Track frame offsets: 
#        150
#        12784
#        27984
#        43630
#        58384
#        75540
#        90992
#        107439
#        124948
#        142157
#        158125
#        172101
#        189602
#        206506
#        222788
#        235904
#        254229
#        269134
#        286855
#
# Disc length: 4055 seconds
#
# Revision: 1
# Processed by: cddbd v1.5.2PL0 Copyright (c) Steve Scherf et al.
# Submitted via: ExactAudioCopyFreeDBPlugin 1.0
#
DISCID=1b0fd513
DTITLE=Various Artist - Promo Only Country Radio August 2006
DYEAR=2006
DGENRE=Country
TTITLE0=Gretchen Wilson - California Girls
TTITLE1=Jason Aldean - Amarillo Sky
TTITLE2=George Strait - Give It Away
TTITLE3=Jo Dee Messina - It's Too Late To Worry
TTITLE4=Neal McCoy - Tailgate
TTITLE5=Faith Hill - Sunshine And Summertime (Album Version)
TTITLE6=Taylor Swift - Tim McGraw (Radio Edit)
TTITLE7=Lonestar - Mountains
TTITLE8=Blue Country - Firecrackers And Ferris Wheels
TTITLE9=Heartland - I Loved Her First
TTITLE10=Collin Raye - Hurricane Jane
TTITLE11=Rushlow Harris - That's So You
TTITLE12=Tracy Byrd - Cheapest Motel
TTITLE13=Povertyneck Hillbillies - Mr. Right Now
TTITLE14=Julie Roberts - Girl Next Door
TTITLE15=Shooter Jennings - Gone To Carolina
TTITLE16=Chris Young - Dinkin' Me Lonely
TTITLE17=Keith Anderson - Everytime I Hear Your Name (Close Up Version
TTITLE17=)
TTITLE18=Phil Vassar - Last Day Of My Life (Stripped Down Piano Versio
TTITLE18=n)
EXTD=
EXTT0=
EXTT1=
EXTT2=
EXTT3=
EXTT4=
EXTT5=
EXTT6=
EXTT7=
EXTT8=
EXTT9=
EXTT10=
EXTT11=
EXTT12=
EXTT13=
EXTT14=
EXTT15=
EXTT16=
EXTT17=
EXTT18=
PLAYORDER=
